<mxfile host="app.diagrams.net" modified="2024-05-24T06:05:32.470Z" agent="Mozilla/5.0 (Windows NT 10.0; Win64; x64) AppleWebKit/537.36 (KHTML, like Gecko) Chrome/125.0.0.0 Safari/537.36 Edg/125.0.0.0" etag="LTafXYgygK8-tSUH6Z6Q" version="24.4.6" type="github">
  <diagram id="C5RBs43oDa-KdzZeNtuy" name="Page-1">
    <mxGraphModel dx="1141" dy="799" grid="1" gridSize="10" guides="1" tooltips="1" connect="1" arrows="1" fold="1" page="1" pageScale="1" pageWidth="827" pageHeight="1169" math="0" shadow="0">
      <root>
        <mxCell id="WIyWlLk6GJQsqaUBKTNV-0" />
        <mxCell id="WIyWlLk6GJQsqaUBKTNV-1" parent="WIyWlLk6GJQsqaUBKTNV-0" />
        <mxCell id="WIyWlLk6GJQsqaUBKTNV-2" value="" style="rounded=0;html=1;jettySize=auto;orthogonalLoop=1;fontSize=11;endArrow=block;endFill=0;endSize=8;strokeWidth=1;shadow=0;labelBackgroundColor=none;edgeStyle=orthogonalEdgeStyle;" parent="WIyWlLk6GJQsqaUBKTNV-1" source="WIyWlLk6GJQsqaUBKTNV-3" target="WIyWlLk6GJQsqaUBKTNV-6" edge="1">
          <mxGeometry relative="1" as="geometry" />
        </mxCell>
        <mxCell id="WIyWlLk6GJQsqaUBKTNV-3" value="请求连接" style="rounded=1;whiteSpace=wrap;html=1;fontSize=12;glass=0;strokeWidth=1;shadow=0;" parent="WIyWlLk6GJQsqaUBKTNV-1" vertex="1">
          <mxGeometry x="160" y="100" width="120" height="40" as="geometry" />
        </mxCell>
        <mxCell id="WIyWlLk6GJQsqaUBKTNV-4" value="No" style="rounded=0;html=1;jettySize=auto;orthogonalLoop=1;fontSize=11;endArrow=block;endFill=0;endSize=8;strokeWidth=1;shadow=0;labelBackgroundColor=none;edgeStyle=orthogonalEdgeStyle;" parent="WIyWlLk6GJQsqaUBKTNV-1" source="WIyWlLk6GJQsqaUBKTNV-6" target="WIyWlLk6GJQsqaUBKTNV-10" edge="1">
          <mxGeometry x="0.4" y="-20" relative="1" as="geometry">
            <mxPoint as="offset" />
          </mxGeometry>
        </mxCell>
        <mxCell id="WIyWlLk6GJQsqaUBKTNV-5" value="Yes" style="edgeStyle=orthogonalEdgeStyle;rounded=0;html=1;jettySize=auto;orthogonalLoop=1;fontSize=11;endArrow=block;endFill=0;endSize=8;strokeWidth=1;shadow=0;labelBackgroundColor=none;" parent="WIyWlLk6GJQsqaUBKTNV-1" source="WIyWlLk6GJQsqaUBKTNV-6" target="WIyWlLk6GJQsqaUBKTNV-7" edge="1">
          <mxGeometry y="10" relative="1" as="geometry">
            <mxPoint as="offset" />
          </mxGeometry>
        </mxCell>
        <mxCell id="WIyWlLk6GJQsqaUBKTNV-6" value="通讯是应答式" style="rhombus;whiteSpace=wrap;html=1;shadow=0;fontFamily=Helvetica;fontSize=12;align=center;strokeWidth=1;spacing=6;spacingTop=-4;" parent="WIyWlLk6GJQsqaUBKTNV-1" vertex="1">
          <mxGeometry x="170" y="170" width="100" height="80" as="geometry" />
        </mxCell>
        <mxCell id="6bqjRStmIQq89tT42Z0w-11" style="edgeStyle=orthogonalEdgeStyle;rounded=0;orthogonalLoop=1;jettySize=auto;html=1;entryX=0.5;entryY=0;entryDx=0;entryDy=0;" edge="1" parent="WIyWlLk6GJQsqaUBKTNV-1" source="WIyWlLk6GJQsqaUBKTNV-7" target="6bqjRStmIQq89tT42Z0w-7">
          <mxGeometry relative="1" as="geometry" />
        </mxCell>
        <mxCell id="WIyWlLk6GJQsqaUBKTNV-7" value="发送请求数据命令" style="rounded=1;whiteSpace=wrap;html=1;fontSize=12;glass=0;strokeWidth=1;shadow=0;" parent="WIyWlLk6GJQsqaUBKTNV-1" vertex="1">
          <mxGeometry x="354" y="190" width="120" height="40" as="geometry" />
        </mxCell>
        <mxCell id="WIyWlLk6GJQsqaUBKTNV-9" value="Yes" style="edgeStyle=orthogonalEdgeStyle;rounded=0;html=1;jettySize=auto;orthogonalLoop=1;fontSize=11;endArrow=block;endFill=0;endSize=8;strokeWidth=1;shadow=0;labelBackgroundColor=none;" parent="WIyWlLk6GJQsqaUBKTNV-1" source="WIyWlLk6GJQsqaUBKTNV-10" target="WIyWlLk6GJQsqaUBKTNV-12" edge="1">
          <mxGeometry y="10" relative="1" as="geometry">
            <mxPoint as="offset" />
          </mxGeometry>
        </mxCell>
        <mxCell id="6bqjRStmIQq89tT42Z0w-27" value="" style="edgeStyle=orthogonalEdgeStyle;rounded=0;orthogonalLoop=1;jettySize=auto;html=1;" edge="1" parent="WIyWlLk6GJQsqaUBKTNV-1" source="WIyWlLk6GJQsqaUBKTNV-10">
          <mxGeometry relative="1" as="geometry">
            <mxPoint x="120" y="330" as="targetPoint" />
          </mxGeometry>
        </mxCell>
        <mxCell id="WIyWlLk6GJQsqaUBKTNV-10" value="通讯是注册分发&lt;br&gt;模式" style="rhombus;whiteSpace=wrap;html=1;shadow=0;fontFamily=Helvetica;fontSize=12;align=center;strokeWidth=1;spacing=6;spacingTop=-4;" parent="WIyWlLk6GJQsqaUBKTNV-1" vertex="1">
          <mxGeometry x="160" y="280" width="120" height="100" as="geometry" />
        </mxCell>
        <mxCell id="6bqjRStmIQq89tT42Z0w-1" value="" style="edgeStyle=orthogonalEdgeStyle;rounded=0;orthogonalLoop=1;jettySize=auto;html=1;" edge="1" parent="WIyWlLk6GJQsqaUBKTNV-1" source="WIyWlLk6GJQsqaUBKTNV-12" target="6bqjRStmIQq89tT42Z0w-0">
          <mxGeometry relative="1" as="geometry" />
        </mxCell>
        <mxCell id="WIyWlLk6GJQsqaUBKTNV-12" value="发送请求数据命令" style="rounded=1;whiteSpace=wrap;html=1;fontSize=12;glass=0;strokeWidth=1;shadow=0;" parent="WIyWlLk6GJQsqaUBKTNV-1" vertex="1">
          <mxGeometry x="160" y="410" width="120" height="40" as="geometry" />
        </mxCell>
        <mxCell id="6bqjRStmIQq89tT42Z0w-15" value="" style="edgeStyle=orthogonalEdgeStyle;rounded=0;orthogonalLoop=1;jettySize=auto;html=1;" edge="1" parent="WIyWlLk6GJQsqaUBKTNV-1" source="6bqjRStmIQq89tT42Z0w-0" target="6bqjRStmIQq89tT42Z0w-14">
          <mxGeometry relative="1" as="geometry" />
        </mxCell>
        <mxCell id="6bqjRStmIQq89tT42Z0w-0" value="接收服务端返回消息" style="whiteSpace=wrap;html=1;rounded=1;glass=0;strokeWidth=1;shadow=0;" vertex="1" parent="WIyWlLk6GJQsqaUBKTNV-1">
          <mxGeometry x="160" y="480" width="120" height="40" as="geometry" />
        </mxCell>
        <mxCell id="6bqjRStmIQq89tT42Z0w-5" value="" style="edgeStyle=orthogonalEdgeStyle;rounded=0;orthogonalLoop=1;jettySize=auto;html=1;" edge="1" parent="WIyWlLk6GJQsqaUBKTNV-1" source="6bqjRStmIQq89tT42Z0w-2" target="6bqjRStmIQq89tT42Z0w-4">
          <mxGeometry relative="1" as="geometry" />
        </mxCell>
        <mxCell id="6bqjRStmIQq89tT42Z0w-37" style="edgeStyle=orthogonalEdgeStyle;rounded=0;orthogonalLoop=1;jettySize=auto;html=1;" edge="1" parent="WIyWlLk6GJQsqaUBKTNV-1" source="6bqjRStmIQq89tT42Z0w-2">
          <mxGeometry relative="1" as="geometry">
            <mxPoint x="140" y="800" as="targetPoint" />
          </mxGeometry>
        </mxCell>
        <mxCell id="6bqjRStmIQq89tT42Z0w-2" value="保存解析后的数据到数据库" style="whiteSpace=wrap;html=1;rounded=1;glass=0;strokeWidth=1;shadow=0;" vertex="1" parent="WIyWlLk6GJQsqaUBKTNV-1">
          <mxGeometry x="160" y="670" width="120" height="40" as="geometry" />
        </mxCell>
        <mxCell id="6bqjRStmIQq89tT42Z0w-25" style="edgeStyle=orthogonalEdgeStyle;rounded=0;orthogonalLoop=1;jettySize=auto;html=1;entryX=1;entryY=0.5;entryDx=0;entryDy=0;" edge="1" parent="WIyWlLk6GJQsqaUBKTNV-1" source="6bqjRStmIQq89tT42Z0w-4" target="WIyWlLk6GJQsqaUBKTNV-12">
          <mxGeometry relative="1" as="geometry">
            <Array as="points">
              <mxPoint x="300" y="750" />
              <mxPoint x="300" y="430" />
            </Array>
          </mxGeometry>
        </mxCell>
        <mxCell id="6bqjRStmIQq89tT42Z0w-4" value="等待一段时间" style="whiteSpace=wrap;html=1;rounded=1;glass=0;strokeWidth=1;shadow=0;" vertex="1" parent="WIyWlLk6GJQsqaUBKTNV-1">
          <mxGeometry x="160" y="730" width="120" height="40" as="geometry" />
        </mxCell>
        <mxCell id="6bqjRStmIQq89tT42Z0w-22" value="" style="edgeStyle=orthogonalEdgeStyle;rounded=0;orthogonalLoop=1;jettySize=auto;html=1;" edge="1" parent="WIyWlLk6GJQsqaUBKTNV-1" source="6bqjRStmIQq89tT42Z0w-7" target="6bqjRStmIQq89tT42Z0w-21">
          <mxGeometry relative="1" as="geometry" />
        </mxCell>
        <mxCell id="6bqjRStmIQq89tT42Z0w-7" value="接收服务端返回消息" style="whiteSpace=wrap;html=1;rounded=1;glass=0;strokeWidth=1;shadow=0;" vertex="1" parent="WIyWlLk6GJQsqaUBKTNV-1">
          <mxGeometry x="354" y="270" width="120" height="40" as="geometry" />
        </mxCell>
        <mxCell id="6bqjRStmIQq89tT42Z0w-33" value="" style="edgeStyle=orthogonalEdgeStyle;rounded=0;orthogonalLoop=1;jettySize=auto;html=1;" edge="1" parent="WIyWlLk6GJQsqaUBKTNV-1" source="6bqjRStmIQq89tT42Z0w-8" target="6bqjRStmIQq89tT42Z0w-32">
          <mxGeometry relative="1" as="geometry" />
        </mxCell>
        <mxCell id="6bqjRStmIQq89tT42Z0w-8" value="保存解析后的数据到数据库" style="whiteSpace=wrap;html=1;rounded=1;glass=0;strokeWidth=1;shadow=0;" vertex="1" parent="WIyWlLk6GJQsqaUBKTNV-1">
          <mxGeometry x="354" y="460" width="120" height="40" as="geometry" />
        </mxCell>
        <mxCell id="6bqjRStmIQq89tT42Z0w-17" style="edgeStyle=orthogonalEdgeStyle;rounded=0;orthogonalLoop=1;jettySize=auto;html=1;entryX=0.5;entryY=0;entryDx=0;entryDy=0;" edge="1" parent="WIyWlLk6GJQsqaUBKTNV-1" source="6bqjRStmIQq89tT42Z0w-14" target="6bqjRStmIQq89tT42Z0w-2">
          <mxGeometry relative="1" as="geometry" />
        </mxCell>
        <mxCell id="6bqjRStmIQq89tT42Z0w-19" value="Yes" style="edgeLabel;html=1;align=center;verticalAlign=middle;resizable=0;points=[];" vertex="1" connectable="0" parent="6bqjRStmIQq89tT42Z0w-17">
          <mxGeometry x="-0.25" y="-1" relative="1" as="geometry">
            <mxPoint as="offset" />
          </mxGeometry>
        </mxCell>
        <mxCell id="6bqjRStmIQq89tT42Z0w-18" style="edgeStyle=orthogonalEdgeStyle;rounded=0;orthogonalLoop=1;jettySize=auto;html=1;entryX=1;entryY=0;entryDx=0;entryDy=0;" edge="1" parent="WIyWlLk6GJQsqaUBKTNV-1" source="6bqjRStmIQq89tT42Z0w-14" target="6bqjRStmIQq89tT42Z0w-4">
          <mxGeometry relative="1" as="geometry">
            <Array as="points">
              <mxPoint x="290" y="590" />
              <mxPoint x="290" y="720" />
              <mxPoint x="280" y="720" />
            </Array>
          </mxGeometry>
        </mxCell>
        <mxCell id="6bqjRStmIQq89tT42Z0w-20" value="No" style="edgeLabel;html=1;align=center;verticalAlign=middle;resizable=0;points=[];" vertex="1" connectable="0" parent="6bqjRStmIQq89tT42Z0w-18">
          <mxGeometry x="-0.2545" y="-1" relative="1" as="geometry">
            <mxPoint as="offset" />
          </mxGeometry>
        </mxCell>
        <mxCell id="6bqjRStmIQq89tT42Z0w-14" value="是有效数据" style="rhombus;whiteSpace=wrap;html=1;" vertex="1" parent="WIyWlLk6GJQsqaUBKTNV-1">
          <mxGeometry x="180" y="550" width="80" height="80" as="geometry" />
        </mxCell>
        <mxCell id="6bqjRStmIQq89tT42Z0w-23" style="edgeStyle=orthogonalEdgeStyle;rounded=0;orthogonalLoop=1;jettySize=auto;html=1;entryX=0.5;entryY=0;entryDx=0;entryDy=0;" edge="1" parent="WIyWlLk6GJQsqaUBKTNV-1" source="6bqjRStmIQq89tT42Z0w-21" target="6bqjRStmIQq89tT42Z0w-8">
          <mxGeometry relative="1" as="geometry" />
        </mxCell>
        <mxCell id="6bqjRStmIQq89tT42Z0w-24" value="Yes" style="edgeLabel;html=1;align=center;verticalAlign=middle;resizable=0;points=[];" vertex="1" connectable="0" parent="6bqjRStmIQq89tT42Z0w-23">
          <mxGeometry x="-0.3" y="2" relative="1" as="geometry">
            <mxPoint as="offset" />
          </mxGeometry>
        </mxCell>
        <mxCell id="6bqjRStmIQq89tT42Z0w-30" value="" style="edgeStyle=orthogonalEdgeStyle;rounded=0;orthogonalLoop=1;jettySize=auto;html=1;" edge="1" parent="WIyWlLk6GJQsqaUBKTNV-1" source="6bqjRStmIQq89tT42Z0w-21">
          <mxGeometry relative="1" as="geometry">
            <mxPoint x="480" y="380" as="targetPoint" />
          </mxGeometry>
        </mxCell>
        <mxCell id="6bqjRStmIQq89tT42Z0w-21" value="是有效数据" style="rhombus;whiteSpace=wrap;html=1;" vertex="1" parent="WIyWlLk6GJQsqaUBKTNV-1">
          <mxGeometry x="374" y="340" width="80" height="80" as="geometry" />
        </mxCell>
        <mxCell id="6bqjRStmIQq89tT42Z0w-28" value="提示暂不支持该类型" style="rounded=1;whiteSpace=wrap;html=1;" vertex="1" parent="WIyWlLk6GJQsqaUBKTNV-1">
          <mxGeometry y="305" width="120" height="50" as="geometry" />
        </mxCell>
        <mxCell id="6bqjRStmIQq89tT42Z0w-31" value="丢弃数据" style="rounded=1;whiteSpace=wrap;html=1;" vertex="1" parent="WIyWlLk6GJQsqaUBKTNV-1">
          <mxGeometry x="480" y="355" width="120" height="50" as="geometry" />
        </mxCell>
        <mxCell id="6bqjRStmIQq89tT42Z0w-35" value="" style="edgeStyle=orthogonalEdgeStyle;rounded=0;orthogonalLoop=1;jettySize=auto;html=1;" edge="1" parent="WIyWlLk6GJQsqaUBKTNV-1" source="6bqjRStmIQq89tT42Z0w-32" target="6bqjRStmIQq89tT42Z0w-34">
          <mxGeometry relative="1" as="geometry" />
        </mxCell>
        <mxCell id="6bqjRStmIQq89tT42Z0w-32" value="返回解析数据到UI" style="whiteSpace=wrap;html=1;rounded=1;glass=0;strokeWidth=1;shadow=0;" vertex="1" parent="WIyWlLk6GJQsqaUBKTNV-1">
          <mxGeometry x="354" y="525" width="120" height="60" as="geometry" />
        </mxCell>
        <mxCell id="6bqjRStmIQq89tT42Z0w-34" value="UI展示数据" style="whiteSpace=wrap;html=1;rounded=1;glass=0;strokeWidth=1;shadow=0;" vertex="1" parent="WIyWlLk6GJQsqaUBKTNV-1">
          <mxGeometry x="354" y="610" width="120" height="60" as="geometry" />
        </mxCell>
        <mxCell id="6bqjRStmIQq89tT42Z0w-40" style="edgeStyle=orthogonalEdgeStyle;rounded=0;orthogonalLoop=1;jettySize=auto;html=1;entryX=0.5;entryY=0;entryDx=0;entryDy=0;" edge="1" parent="WIyWlLk6GJQsqaUBKTNV-1" source="6bqjRStmIQq89tT42Z0w-38" target="6bqjRStmIQq89tT42Z0w-39">
          <mxGeometry relative="1" as="geometry" />
        </mxCell>
        <mxCell id="6bqjRStmIQq89tT42Z0w-38" value="返回解析数据到UI" style="whiteSpace=wrap;html=1;rounded=1;glass=0;strokeWidth=1;shadow=0;" vertex="1" parent="WIyWlLk6GJQsqaUBKTNV-1">
          <mxGeometry x="80" y="800" width="120" height="40" as="geometry" />
        </mxCell>
        <mxCell id="6bqjRStmIQq89tT42Z0w-39" value="UI展示数据" style="whiteSpace=wrap;html=1;rounded=1;glass=0;strokeWidth=1;shadow=0;" vertex="1" parent="WIyWlLk6GJQsqaUBKTNV-1">
          <mxGeometry x="80" y="860" width="120" height="35" as="geometry" />
        </mxCell>
        <mxCell id="6bqjRStmIQq89tT42Z0w-43" value="" style="edgeStyle=orthogonalEdgeStyle;rounded=0;orthogonalLoop=1;jettySize=auto;html=1;" edge="1" parent="WIyWlLk6GJQsqaUBKTNV-1" source="6bqjRStmIQq89tT42Z0w-41" target="6bqjRStmIQq89tT42Z0w-42">
          <mxGeometry relative="1" as="geometry" />
        </mxCell>
        <mxCell id="6bqjRStmIQq89tT42Z0w-41" value="传感器" style="rounded=0;whiteSpace=wrap;html=1;" vertex="1" parent="WIyWlLk6GJQsqaUBKTNV-1">
          <mxGeometry x="710" y="65" width="90" height="40" as="geometry" />
        </mxCell>
        <mxCell id="6bqjRStmIQq89tT42Z0w-45" value="" style="edgeStyle=orthogonalEdgeStyle;rounded=0;orthogonalLoop=1;jettySize=auto;html=1;" edge="1" parent="WIyWlLk6GJQsqaUBKTNV-1" source="6bqjRStmIQq89tT42Z0w-42" target="6bqjRStmIQq89tT42Z0w-44">
          <mxGeometry relative="1" as="geometry" />
        </mxCell>
        <mxCell id="6bqjRStmIQq89tT42Z0w-42" value="解调设备" style="rounded=0;whiteSpace=wrap;html=1;" vertex="1" parent="WIyWlLk6GJQsqaUBKTNV-1">
          <mxGeometry x="830" y="65" width="97" height="40" as="geometry" />
        </mxCell>
        <mxCell id="6bqjRStmIQq89tT42Z0w-48" value="" style="edgeStyle=orthogonalEdgeStyle;rounded=0;orthogonalLoop=1;jettySize=auto;html=1;" edge="1" parent="WIyWlLk6GJQsqaUBKTNV-1" source="6bqjRStmIQq89tT42Z0w-44" target="6bqjRStmIQq89tT42Z0w-47">
          <mxGeometry relative="1" as="geometry" />
        </mxCell>
        <mxCell id="6bqjRStmIQq89tT42Z0w-51" value="" style="edgeStyle=orthogonalEdgeStyle;rounded=0;orthogonalLoop=1;jettySize=auto;html=1;" edge="1" parent="WIyWlLk6GJQsqaUBKTNV-1" source="6bqjRStmIQq89tT42Z0w-44" target="6bqjRStmIQq89tT42Z0w-49">
          <mxGeometry relative="1" as="geometry" />
        </mxCell>
        <mxCell id="6bqjRStmIQq89tT42Z0w-60" value="注册" style="edgeLabel;html=1;align=center;verticalAlign=middle;resizable=0;points=[];" vertex="1" connectable="0" parent="6bqjRStmIQq89tT42Z0w-51">
          <mxGeometry x="-0.0714" y="1" relative="1" as="geometry">
            <mxPoint as="offset" />
          </mxGeometry>
        </mxCell>
        <mxCell id="6bqjRStmIQq89tT42Z0w-44" value="OSA解调Server" style="rounded=0;whiteSpace=wrap;html=1;" vertex="1" parent="WIyWlLk6GJQsqaUBKTNV-1">
          <mxGeometry x="952.5" y="57.5" width="115" height="55" as="geometry" />
        </mxCell>
        <mxCell id="6bqjRStmIQq89tT42Z0w-47" value="解码设备本地数据库" style="rounded=0;whiteSpace=wrap;html=1;" vertex="1" parent="WIyWlLk6GJQsqaUBKTNV-1">
          <mxGeometry x="950" y="130" width="120" height="50" as="geometry" />
        </mxCell>
        <mxCell id="6bqjRStmIQq89tT42Z0w-53" value="" style="edgeStyle=orthogonalEdgeStyle;rounded=0;orthogonalLoop=1;jettySize=auto;html=1;" edge="1" parent="WIyWlLk6GJQsqaUBKTNV-1" source="6bqjRStmIQq89tT42Z0w-49" target="6bqjRStmIQq89tT42Z0w-52">
          <mxGeometry relative="1" as="geometry" />
        </mxCell>
        <mxCell id="6bqjRStmIQq89tT42Z0w-55" value="" style="edgeStyle=orthogonalEdgeStyle;rounded=0;orthogonalLoop=1;jettySize=auto;html=1;" edge="1" parent="WIyWlLk6GJQsqaUBKTNV-1" source="6bqjRStmIQq89tT42Z0w-49" target="6bqjRStmIQq89tT42Z0w-54">
          <mxGeometry relative="1" as="geometry" />
        </mxCell>
        <mxCell id="6bqjRStmIQq89tT42Z0w-56" style="edgeStyle=orthogonalEdgeStyle;rounded=0;orthogonalLoop=1;jettySize=auto;html=1;entryX=0.5;entryY=0;entryDx=0;entryDy=0;" edge="1" parent="WIyWlLk6GJQsqaUBKTNV-1" source="6bqjRStmIQq89tT42Z0w-49" target="6bqjRStmIQq89tT42Z0w-44">
          <mxGeometry relative="1" as="geometry">
            <Array as="points">
              <mxPoint x="1190" y="40" />
              <mxPoint x="1010" y="40" />
            </Array>
          </mxGeometry>
        </mxCell>
        <mxCell id="6bqjRStmIQq89tT42Z0w-59" value="请求" style="edgeLabel;html=1;align=center;verticalAlign=middle;resizable=0;points=[];" vertex="1" connectable="0" parent="6bqjRStmIQq89tT42Z0w-56">
          <mxGeometry x="0.0133" y="-3" relative="1" as="geometry">
            <mxPoint as="offset" />
          </mxGeometry>
        </mxCell>
        <mxCell id="6bqjRStmIQq89tT42Z0w-52" value="Mysql数据库" style="rounded=0;whiteSpace=wrap;html=1;" vertex="1" parent="WIyWlLk6GJQsqaUBKTNV-1">
          <mxGeometry x="1121" y="130" width="141" height="50" as="geometry" />
        </mxCell>
        <mxCell id="6bqjRStmIQq89tT42Z0w-49" value="乘黄厂务系统Server" style="rounded=0;whiteSpace=wrap;html=1;" vertex="1" parent="WIyWlLk6GJQsqaUBKTNV-1">
          <mxGeometry x="1121" y="60" width="141" height="50" as="geometry" />
        </mxCell>
        <mxCell id="6bqjRStmIQq89tT42Z0w-54" value="MES" style="rounded=0;whiteSpace=wrap;html=1;" vertex="1" parent="WIyWlLk6GJQsqaUBKTNV-1">
          <mxGeometry x="1310" y="65" width="90" height="40" as="geometry" />
        </mxCell>
        <mxCell id="6bqjRStmIQq89tT42Z0w-57" style="edgeStyle=orthogonalEdgeStyle;rounded=0;orthogonalLoop=1;jettySize=auto;html=1;entryX=0.603;entryY=0.02;entryDx=0;entryDy=0;entryPerimeter=0;" edge="1" parent="WIyWlLk6GJQsqaUBKTNV-1" source="6bqjRStmIQq89tT42Z0w-44" target="6bqjRStmIQq89tT42Z0w-49">
          <mxGeometry relative="1" as="geometry">
            <Array as="points">
              <mxPoint x="990" y="20" />
              <mxPoint x="1206" y="20" />
            </Array>
          </mxGeometry>
        </mxCell>
        <mxCell id="6bqjRStmIQq89tT42Z0w-58" value="返回" style="edgeLabel;html=1;align=center;verticalAlign=middle;resizable=0;points=[];" vertex="1" connectable="0" parent="6bqjRStmIQq89tT42Z0w-57">
          <mxGeometry x="-0.0331" y="2" relative="1" as="geometry">
            <mxPoint as="offset" />
          </mxGeometry>
        </mxCell>
        <mxCell id="6bqjRStmIQq89tT42Z0w-63" value="" style="edgeStyle=orthogonalEdgeStyle;rounded=0;orthogonalLoop=1;jettySize=auto;html=1;" edge="1" parent="WIyWlLk6GJQsqaUBKTNV-1" source="6bqjRStmIQq89tT42Z0w-61" target="6bqjRStmIQq89tT42Z0w-62">
          <mxGeometry relative="1" as="geometry" />
        </mxCell>
        <mxCell id="6bqjRStmIQq89tT42Z0w-61" value="传感器" style="rounded=0;whiteSpace=wrap;html=1;" vertex="1" parent="WIyWlLk6GJQsqaUBKTNV-1">
          <mxGeometry x="690" y="400" width="120" height="60" as="geometry" />
        </mxCell>
        <mxCell id="6bqjRStmIQq89tT42Z0w-65" value="" style="edgeStyle=orthogonalEdgeStyle;rounded=0;orthogonalLoop=1;jettySize=auto;html=1;" edge="1" parent="WIyWlLk6GJQsqaUBKTNV-1" source="6bqjRStmIQq89tT42Z0w-62" target="6bqjRStmIQq89tT42Z0w-64">
          <mxGeometry relative="1" as="geometry" />
        </mxCell>
        <mxCell id="6bqjRStmIQq89tT42Z0w-62" value="解调设备" style="rounded=0;whiteSpace=wrap;html=1;" vertex="1" parent="WIyWlLk6GJQsqaUBKTNV-1">
          <mxGeometry x="890" y="400" width="120" height="60" as="geometry" />
        </mxCell>
        <mxCell id="6bqjRStmIQq89tT42Z0w-67" value="" style="edgeStyle=orthogonalEdgeStyle;rounded=0;orthogonalLoop=1;jettySize=auto;html=1;" edge="1" parent="WIyWlLk6GJQsqaUBKTNV-1" source="6bqjRStmIQq89tT42Z0w-64" target="6bqjRStmIQq89tT42Z0w-66">
          <mxGeometry relative="1" as="geometry" />
        </mxCell>
        <mxCell id="6bqjRStmIQq89tT42Z0w-78" value="注册" style="edgeLabel;html=1;align=center;verticalAlign=middle;resizable=0;points=[];" vertex="1" connectable="0" parent="6bqjRStmIQq89tT42Z0w-67">
          <mxGeometry x="-0.1" y="1" relative="1" as="geometry">
            <mxPoint as="offset" />
          </mxGeometry>
        </mxCell>
        <mxCell id="6bqjRStmIQq89tT42Z0w-71" value="" style="edgeStyle=orthogonalEdgeStyle;rounded=0;orthogonalLoop=1;jettySize=auto;html=1;" edge="1" parent="WIyWlLk6GJQsqaUBKTNV-1" source="6bqjRStmIQq89tT42Z0w-64" target="6bqjRStmIQq89tT42Z0w-70">
          <mxGeometry relative="1" as="geometry" />
        </mxCell>
        <mxCell id="6bqjRStmIQq89tT42Z0w-74" style="edgeStyle=orthogonalEdgeStyle;rounded=0;orthogonalLoop=1;jettySize=auto;html=1;entryX=0.75;entryY=0;entryDx=0;entryDy=0;" edge="1" parent="WIyWlLk6GJQsqaUBKTNV-1" source="6bqjRStmIQq89tT42Z0w-64" target="6bqjRStmIQq89tT42Z0w-66">
          <mxGeometry relative="1" as="geometry">
            <Array as="points">
              <mxPoint x="1150" y="340" />
              <mxPoint x="1380" y="340" />
            </Array>
          </mxGeometry>
        </mxCell>
        <mxCell id="6bqjRStmIQq89tT42Z0w-76" value="返回" style="edgeLabel;html=1;align=center;verticalAlign=middle;resizable=0;points=[];" vertex="1" connectable="0" parent="6bqjRStmIQq89tT42Z0w-74">
          <mxGeometry x="-0.0686" y="3" relative="1" as="geometry">
            <mxPoint as="offset" />
          </mxGeometry>
        </mxCell>
        <mxCell id="6bqjRStmIQq89tT42Z0w-64" value="OSA解调Server" style="rounded=0;whiteSpace=wrap;html=1;" vertex="1" parent="WIyWlLk6GJQsqaUBKTNV-1">
          <mxGeometry x="1090" y="400" width="120" height="60" as="geometry" />
        </mxCell>
        <mxCell id="6bqjRStmIQq89tT42Z0w-69" value="" style="edgeStyle=orthogonalEdgeStyle;rounded=0;orthogonalLoop=1;jettySize=auto;html=1;" edge="1" parent="WIyWlLk6GJQsqaUBKTNV-1" source="6bqjRStmIQq89tT42Z0w-66" target="6bqjRStmIQq89tT42Z0w-68">
          <mxGeometry relative="1" as="geometry" />
        </mxCell>
        <mxCell id="6bqjRStmIQq89tT42Z0w-73" value="" style="edgeStyle=orthogonalEdgeStyle;rounded=0;orthogonalLoop=1;jettySize=auto;html=1;" edge="1" parent="WIyWlLk6GJQsqaUBKTNV-1" source="6bqjRStmIQq89tT42Z0w-66" target="6bqjRStmIQq89tT42Z0w-72">
          <mxGeometry relative="1" as="geometry" />
        </mxCell>
        <mxCell id="6bqjRStmIQq89tT42Z0w-66" value="乘黄厂务系统Server" style="rounded=0;whiteSpace=wrap;html=1;" vertex="1" parent="WIyWlLk6GJQsqaUBKTNV-1">
          <mxGeometry x="1290" y="400" width="120" height="60" as="geometry" />
        </mxCell>
        <mxCell id="6bqjRStmIQq89tT42Z0w-68" value="MES" style="rounded=0;whiteSpace=wrap;html=1;" vertex="1" parent="WIyWlLk6GJQsqaUBKTNV-1">
          <mxGeometry x="1490" y="400" width="120" height="60" as="geometry" />
        </mxCell>
        <mxCell id="6bqjRStmIQq89tT42Z0w-70" value="解码设备本地数据库" style="rounded=0;whiteSpace=wrap;html=1;" vertex="1" parent="WIyWlLk6GJQsqaUBKTNV-1">
          <mxGeometry x="1090" y="540" width="120" height="60" as="geometry" />
        </mxCell>
        <mxCell id="6bqjRStmIQq89tT42Z0w-72" value="Mysql数据库" style="rounded=0;whiteSpace=wrap;html=1;" vertex="1" parent="WIyWlLk6GJQsqaUBKTNV-1">
          <mxGeometry x="1290" y="540" width="120" height="60" as="geometry" />
        </mxCell>
        <mxCell id="6bqjRStmIQq89tT42Z0w-75" style="edgeStyle=orthogonalEdgeStyle;rounded=0;orthogonalLoop=1;jettySize=auto;html=1;entryX=0.7;entryY=0;entryDx=0;entryDy=0;entryPerimeter=0;" edge="1" parent="WIyWlLk6GJQsqaUBKTNV-1" source="6bqjRStmIQq89tT42Z0w-66" target="6bqjRStmIQq89tT42Z0w-64">
          <mxGeometry relative="1" as="geometry">
            <Array as="points">
              <mxPoint x="1340" y="380" />
              <mxPoint x="1174" y="380" />
            </Array>
          </mxGeometry>
        </mxCell>
        <mxCell id="6bqjRStmIQq89tT42Z0w-77" value="请求" style="edgeLabel;html=1;align=center;verticalAlign=middle;resizable=0;points=[];" vertex="1" connectable="0" parent="6bqjRStmIQq89tT42Z0w-75">
          <mxGeometry x="-0.0291" y="-2" relative="1" as="geometry">
            <mxPoint as="offset" />
          </mxGeometry>
        </mxCell>
      </root>
    </mxGraphModel>
  </diagram>
</mxfile>
